<?xml version="1.0" encoding="UTF-8"?>
<svg id="Camada_2" xmlns="http://www.w3.org/2000/svg" viewBox="0 0 277.63 57.93">
  <defs>
    <style>
      .cls-1 {
        fill: #fff;
      }
    </style>
  </defs>
  <g id="Camada_2-2" data-name="Camada_2">
    <g>
      <g>
        <path class="cls-1" d="M0,33.72l4.61-8h7.64c5.01,0,9.25,3.71,9.91,8.68l.84,6.32h-10l-1.44-3.36c-.95-2.21-3.11-3.64-5.51-3.64H0Z"/>
        <path class="cls-1" d="M46,33.72l-4.61-8h-7.64c-5.01,0-9.25,3.71-9.91,8.68l-.84,6.32h10l1.44-3.36c.95-2.21,3.11-3.64,5.51-3.64h6.04Z"/>
        <path class="cls-1" d="M4.61,25.72L19,.72h4l-.4,9.52c-.34,8.22-6.86,14.84-15.07,15.31l-2.93.17Z"/>
        <path class="cls-1" d="M41.39,25.72L27,.72h-4l.4,9.52c.34,8.22,6.86,14.84,15.07,15.31l2.93.17Z"/>
      </g>
      <g>
        <g>
          <path class="cls-1" d="M14.97,56.34c-.34,0-.69-.05-1.05-.16s-.69-.27-1-.49-.55-.52-.74-.87c-.19-.35-.29-.78-.29-1.28s.09-.93.27-1.29c.18-.36.43-.65.73-.87s.63-.38,1-.49c.36-.1.72-.16,1.07-.16.37,0,.74.06,1.08.17.35.11.65.27.91.48v-2.56h1.94v7.39h-1.91v-.51c-.27.23-.57.39-.92.49-.35.1-.71.15-1.1.15ZM13.85,53.59c0,.29.07.54.21.74.14.21.33.36.56.47s.49.16.77.16c.25,0,.5-.04.74-.13.24-.09.44-.23.6-.43.16-.2.23-.46.23-.78v-.17c0-.33-.08-.59-.23-.79-.16-.2-.36-.34-.6-.43-.24-.09-.49-.13-.74-.13-.43,0-.79.12-1.09.35-.3.24-.45.58-.45,1.02v.1Z"/>
          <path class="cls-1" d="M23.28,56.34c-.69,0-1.3-.11-1.84-.32-.54-.22-.96-.53-1.27-.95-.31-.42-.47-.93-.47-1.53s.15-1.12.44-1.54c.29-.42.7-.73,1.23-.94.53-.21,1.15-.32,1.84-.32.74,0,1.37.12,1.88.36.51.24.9.6,1.15,1.07.25.47.34,1.06.27,1.76h-4.87c.03.29.18.54.44.74.26.2.66.3,1.19.3.47,0,.8-.06,1.01-.17.2-.11.35-.26.44-.44l1.77.2c-.15.58-.51,1.01-1.09,1.32-.58.3-1.29.45-2.13.45ZM23.24,52c-.5,0-.88.09-1.12.27-.25.18-.4.39-.45.64h3.09c-.04-.29-.19-.52-.44-.67-.25-.16-.61-.23-1.08-.23Z"/>
          <path class="cls-1" d="M29.02,56.21l-2.57-5.35h2.02l1.58,3.52,1.57-3.52h1.98l-2.57,5.35h-2.01Z"/>
          <path class="cls-1" d="M39.08,56.34c-.63,0-1.2-.08-1.69-.25-.5-.16-.88-.4-1.17-.72-.28-.32-.42-.71-.42-1.18,0-.43.15-.81.44-1.13s.76-.59,1.39-.8c-.23-.24-.43-.49-.58-.75s-.23-.54-.23-.84c0-.39.12-.73.35-1.03s.56-.53.98-.69c.42-.17.92-.25,1.49-.25s1.02.07,1.44.22.75.36,1,.65c.24.29.36.65.36,1.08s-.15.84-.45,1.19c-.3.35-.82.64-1.55.87l1.17,1.06c.28-.3.48-.57.6-.8s.23-.5.32-.78h1.82c-.08.37-.19.71-.31,1-.13.29-.29.57-.5.84s-.45.53-.74.81l1.52,1.37h-2.63l-.37-.36c-.31.15-.65.27-1.02.36-.37.09-.78.13-1.23.13ZM37.92,54.03c0,.23.1.42.31.56.21.14.54.21,1.01.21.19,0,.35,0,.5-.03s.28-.04.39-.08l-1.49-1.44c-.48.18-.72.44-.72.77ZM38.82,50.81c0,.18.04.33.13.46.09.13.22.28.41.44.47-.15.79-.28.97-.41.18-.12.27-.29.27-.5,0-.17-.08-.32-.23-.43-.15-.12-.4-.17-.73-.17-.29,0-.49.06-.62.19-.13.12-.19.26-.19.42Z"/>
          <path class="cls-1" d="M46.88,57.93v-7.07h1.91v.54c.26-.21.57-.38.92-.49.35-.11.72-.17,1.1-.17.35,0,.71.05,1.07.16.36.1.7.27,1,.49s.54.51.73.87c.18.36.27.79.27,1.29s-.1.93-.29,1.28-.44.64-.74.87c-.3.23-.64.39-1,.49s-.71.16-1.05.16c-.36,0-.71-.05-1.06-.15-.35-.1-.66-.25-.93-.46v2.2h-1.94ZM48.82,53.62c0,.32.08.58.23.78.16.2.36.34.6.43.24.09.49.13.73.13.29,0,.55-.05.78-.16s.42-.26.55-.47c.14-.2.21-.45.21-.74v-.1c0-.44-.15-.78-.45-1.02-.3-.24-.66-.35-1.09-.35-.25,0-.49.04-.73.13s-.44.23-.6.43c-.16.2-.23.46-.23.79v.17Z"/>
          <path class="cls-1" d="M58.03,56.34c-.69,0-1.3-.11-1.84-.32-.54-.22-.96-.53-1.27-.95-.31-.42-.47-.93-.47-1.53s.15-1.12.44-1.54c.29-.42.7-.73,1.23-.94.53-.21,1.15-.32,1.84-.32.74,0,1.37.12,1.88.36.51.24.9.6,1.15,1.07.25.47.34,1.06.27,1.76h-4.87c.03.29.18.54.44.74.26.2.66.3,1.19.3.47,0,.8-.06,1.01-.17.2-.11.35-.26.44-.44l1.77.2c-.15.58-.51,1.01-1.09,1.32-.58.3-1.29.45-2.13.45ZM57.99,52c-.5,0-.88.09-1.12.27-.25.18-.4.39-.45.64h3.09c-.04-.29-.19-.52-.44-.67-.25-.16-.61-.23-1.08-.23Z"/>
          <path class="cls-1" d="M62.11,56.21v-5.35h1.91v.74c.23-.3.53-.52.88-.66.35-.14.72-.21,1.1-.21.07,0,.16,0,.26.01s.21.02.33.04v1.55c-.18-.02-.38-.04-.6-.05-.22-.01-.45,0-.67.01-.23.02-.44.07-.62.15-.19.08-.34.21-.46.38-.12.17-.17.41-.17.71v2.67h-1.94Z"/>
          <path class="cls-1" d="M68.11,56.21v-4.03h-1.23v-1.32h1.23c.03-.72.29-1.26.79-1.62.5-.36,1.16-.54,2-.54.52,0,1.07.07,1.64.21v1.22c-.23-.03-.46-.06-.69-.09s-.45-.04-.65-.04-.39.02-.56.06-.31.11-.42.23c-.11.11-.16.28-.16.5v.07h2.19v1.32h-2.19v4.03h-1.94Z"/>
          <path class="cls-1" d="M75.78,56.34c-.46,0-.9-.06-1.32-.18-.42-.12-.8-.3-1.12-.54-.33-.24-.59-.53-.78-.88-.19-.35-.29-.75-.29-1.21,0-.61.16-1.12.47-1.54.31-.42.73-.73,1.26-.94.53-.21,1.13-.32,1.78-.32s1.25.11,1.77.32c.53.21.95.53,1.26.94.31.42.46.93.46,1.54,0,.46-.1.86-.29,1.21-.19.35-.45.64-.78.88-.33.24-.71.41-1.12.54-.42.12-.86.18-1.31.18ZM75.78,54.96c.47,0,.84-.13,1.12-.38.28-.25.42-.58.42-.99v-.1c0-.42-.14-.75-.42-1-.28-.25-.66-.38-1.12-.38s-.84.12-1.13.38c-.29.25-.43.58-.43,1v.1c0,.41.14.74.43.99.29.25.66.38,1.13.38Z"/>
          <path class="cls-1" d="M80.08,56.21v-5.35h1.91v.74c.23-.3.53-.52.88-.66.35-.14.72-.21,1.1-.21.07,0,.16,0,.26.01s.21.02.33.04v1.55c-.18-.02-.38-.04-.6-.05-.22-.01-.45,0-.67.01-.23.02-.44.07-.62.15-.19.08-.34.21-.46.38-.12.17-.17.41-.17.71v2.67h-1.94Z"/>
          <path class="cls-1" d="M85.22,56.21v-5.35h1.91v.55c.2-.21.45-.38.74-.5.29-.12.63-.18,1.02-.18.18,0,.38.02.6.06s.44.11.66.21c.22.1.4.24.56.43.23-.23.49-.4.79-.52.3-.12.65-.18,1.05-.18.27,0,.54.03.81.09.28.06.53.17.77.33s.42.37.56.65c.14.27.22.62.22,1.04v3.37h-1.94v-3.22c0-.31-.09-.52-.27-.66-.18-.13-.42-.2-.69-.2s-.5.07-.69.2c-.19.13-.28.35-.28.66v3.22h-1.94v-3.22c0-.31-.09-.52-.27-.66-.18-.13-.42-.2-.69-.2s-.5.07-.69.2c-.18.13-.28.35-.29.66v3.22h-1.94Z"/>
          <path class="cls-1" d="M98.03,56.32c-.7,0-1.27-.14-1.7-.42-.43-.28-.65-.69-.65-1.21,0-.43.16-.79.48-1.09s.85-.48,1.6-.56l2.15-.22v-.05c0-.49-.36-.73-1.07-.73-.33,0-.58.05-.77.15-.18.1-.31.26-.38.48l-1.95-.15c.08-.32.24-.61.47-.88.23-.27.57-.49,1-.66.43-.17.98-.25,1.65-.25.97,0,1.71.18,2.21.53.51.35.77.87.77,1.55v1.78c0,.26,0,.47,0,.65s.01.33.02.48c.01.15.02.31.04.48h-1.85l-.04-.46c-.23.2-.52.35-.87.43-.35.09-.72.13-1.13.13ZM97.65,54.64c0,.14.06.25.19.34.12.09.33.13.62.13.24,0,.47-.02.69-.07.22-.05.41-.13.55-.25.14-.12.21-.28.21-.48v-.36l-1.66.22c-.19.03-.33.08-.44.15s-.16.18-.16.33Z"/>
          <path class="cls-1" d="M102.84,56.21v-5.35h1.91v.51c.43-.42,1.05-.63,1.88-.63.27,0,.55.03.84.09s.55.17.79.33c.24.16.44.37.58.65.15.27.23.62.23,1.04v3.37h-1.94v-3.16c0-.32-.11-.55-.32-.69-.21-.14-.5-.21-.85-.21s-.64.07-.85.21c-.21.14-.32.37-.33.69v3.16h-1.94Z"/>
          <path class="cls-1" d="M113.29,56.34c-.45,0-.88-.06-1.29-.18-.41-.12-.79-.3-1.11-.54-.33-.24-.59-.53-.79-.88-.19-.35-.29-.75-.29-1.21,0-.61.16-1.12.47-1.54.31-.42.73-.73,1.26-.94.53-.21,1.11-.32,1.75-.32.51,0,.98.07,1.44.21.45.14.83.36,1.15.67.32.3.52.69.62,1.17l-1.8.2c-.1-.26-.27-.47-.51-.63-.24-.16-.54-.24-.91-.24-.47,0-.84.13-1.11.38s-.41.58-.41.99v.1c0,.4.14.73.41.99s.64.38,1.11.38c.37,0,.68-.08.91-.24.24-.16.41-.37.51-.63l1.8.2c-.1.48-.31.87-.62,1.17-.32.3-.7.52-1.15.67-.45.14-.93.21-1.44.21Z"/>
          <path class="cls-1" d="M120.57,56.34c-.69,0-1.3-.11-1.84-.32-.54-.22-.96-.53-1.27-.95-.31-.42-.47-.93-.47-1.53s.15-1.12.44-1.54c.29-.42.7-.73,1.23-.94.53-.21,1.15-.32,1.84-.32.74,0,1.37.12,1.88.36.51.24.9.6,1.15,1.07.25.47.34,1.06.27,1.76h-4.87c.03.29.18.54.44.74.26.2.66.3,1.19.3.47,0,.8-.06,1.01-.17.2-.11.35-.26.44-.44l1.77.2c-.15.58-.51,1.01-1.09,1.32-.58.3-1.29.45-2.13.45ZM120.53,52c-.5,0-.88.09-1.12.27-.25.18-.4.39-.45.64h3.09c-.04-.29-.19-.52-.44-.67-.25-.16-.61-.23-1.08-.23Z"/>
        </g>
        <g>
          <path class="cls-1" d="M71.79,40.74c-3.44,0-6.64-.34-9.6-1.03-2.96-.68-5.53-1.83-7.71-3.44-2.18-1.61-3.87-3.78-5.05-6.52l9.93-2.94c.74,1.33,1.62,2.41,2.64,3.25,1.02.83,2.36,1.44,4.02,1.83,1.67.39,3.81.58,6.44.58,3.22,0,5.66-.35,7.33-1.05,1.67-.7,2.5-1.61,2.5-2.72,0-.85-.41-1.57-1.22-2.16-.81-.59-2.37-1.02-4.66-1.28l-10.71-1.33c-4.96-.63-8.66-1.85-11.1-3.66-2.44-1.81-3.66-4.33-3.66-7.55,0-2.85.85-5.21,2.55-7.08,1.7-1.87,4.12-3.27,7.24-4.22,3.13-.94,6.78-1.42,10.96-1.42,3.03,0,5.93.31,8.69.94,2.76.63,5.22,1.7,7.38,3.22,2.16,1.52,3.88,3.65,5.13,6.38l-9.49,2.94c-1.11-2.07-2.67-3.46-4.69-4.16-2.02-.7-4.65-1.05-7.91-1.05-2.74,0-4.93.29-6.58.86-1.65.57-2.47,1.4-2.47,2.47,0,.93.45,1.67,1.36,2.22.91.55,2.4.96,4.47,1.22l11.77,1.44c4.81.59,8.33,1.83,10.54,3.72,2.22,1.89,3.33,4.38,3.33,7.49,0,2.89-.89,5.3-2.66,7.24s-4.27,3.4-7.49,4.36c-3.22.96-6.98,1.44-11.27,1.44Z"/>
          <path class="cls-1" d="M121.01,40.79c-4.74,0-8.94-.84-12.63-2.53-3.68-1.68-6.57-4.05-8.66-7.1-2.09-3.05-3.14-6.65-3.14-10.79s1.04-7.73,3.14-10.77c2.09-3.03,4.98-5.38,8.66-7.05C112.07.89,116.28.06,121.01.06c4.14,0,7.79.59,10.93,1.78,3.14,1.18,5.73,2.8,7.77,4.86,2.03,2.05,3.4,4.36,4.11,6.91l-9.93,2.39c-.78-1.92-1.81-3.43-3.11-4.52-1.3-1.09-2.77-1.86-4.41-2.3-1.65-.44-3.38-.67-5.19-.67-2.44,0-4.68.42-6.72,1.25-2.04.83-3.65,2.08-4.86,3.75-1.2,1.66-1.8,3.77-1.8,6.33v1.11c0,2.52.6,4.62,1.8,6.3,1.2,1.68,2.82,2.94,4.86,3.77,2.03.83,4.27,1.25,6.72,1.25,1.81,0,3.54-.22,5.19-.67,1.65-.44,3.12-1.21,4.41-2.3,1.29-1.09,2.33-2.6,3.11-4.52l9.93,2.39c-.7,2.55-2.07,4.86-4.11,6.91-2.04,2.05-4.63,3.69-7.77,4.91-3.15,1.22-6.79,1.83-10.93,1.83Z"/>
          <path class="cls-1" d="M148.15,40.07V.67h36.63v8.21h-25.53v7.33h23.03v7.88h-23.03v7.77h25.92v8.21h-37.02Z"/>
          <path class="cls-1" d="M190.5,40.07V.67h11.38l18.87,22.09h.06V.67h10.32v39.4h-8.49l-21.76-25.42h-.06v25.42h-10.32Z"/>
          <path class="cls-1" d="M250.88,40.07V8.88h-15.65V.67h42.4v8.21h-15.65v31.19h-11.1Z"/>
        </g>
      </g>
    </g>
  </g>
</svg>