<?xml version="1.0" encoding="UTF-8"?>
<svg id="Camada_2" xmlns="http://www.w3.org/2000/svg" viewBox="0 0 46 40">
  <g id="Camada_2-2" data-name="Camada_2">
    <g>
      <path d="M0,33l4.61-8h7.64c5.01,0,9.25,3.71,9.91,8.68l.84,6.32h-10l-1.44-3.36c-.95-2.21-3.11-3.64-5.51-3.64H0Z"/>
      <path d="M46,33l-4.61-8h-7.64c-5.01,0-9.25,3.71-9.91,8.68l-.84,6.32h10l1.44-3.36c.95-2.21,3.11-3.64,5.51-3.64h6.04Z"/>
      <path d="M4.61,25L19,0h4l-.4,9.52c-.34,8.22-6.86,14.84-15.07,15.31l-2.93.17Z"/>
      <path d="M41.39,25L27,0h-4l.4,9.52c.34,8.22,6.86,14.84,15.07,15.31l2.93.17Z"/>
    </g>
  </g>
</svg>