<?xml version="1.0" encoding="UTF-8"?>
<svg xmlns="http://www.w3.org/2000/svg" version="1.1" xmlns:xlink="http://www.w3.org/1999/xlink" viewBox="0 0 48 48">
  <defs>
    <style>
      .cls-1 {
        fill: #fff;
      }

      .cls-2 {
        fill: none;
      }

      .cls-3 {
        fill: url(#Gradiente_sem_nome);
      }

      .cls-4 {
        display: none;
      }

      .cls-5 {
        clip-path: url(#clippath);
      }
    </style>
    <clipPath id="clippath">
      <rect class="cls-2" x="0" width="48" height="48"/>
    </clipPath>
    <linearGradient id="Gradiente_sem_nome" data-name="Gradiente sem nome" x1="33.9" y1="39.2" x2="12.3" y2="10.5" gradientTransform="translate(0 50) scale(1 -1)" gradientUnits="userSpaceOnUse">
      <stop offset="0" stop-color="#9de8ee"/>
      <stop offset="0" stop-color="#9de8ee"/>
      <stop offset=".5" stop-color="#fa7c0b"/>
      <stop offset="1" stop-color="#9f8ced"/>
    </linearGradient>
  </defs>
  <!-- Generator: Adobe Illustrator 28.6.0, SVG Export Plug-In . SVG Version: 1.2.0 Build 709)  -->
  <g>
    <g id="Camada_1">
      <rect class="cls-4" x="-1" width="51" height="49.7"/>
      <g>
        <g class="cls-5">
          <g>
            <path class="cls-1" d="M24,12.6c-6.3,0-11.4,5.1-11.4,11.4s5.1,11.4,11.4,11.4,11.4-5.1,11.4-11.4-5.1-11.4-11.4-11.4h0ZM18.5,25.6c0,1.3-.5,1.4-1.7,1.4h-1v-4.8h1c1,0,1.7,0,1.7,1.2s-.2,1-.8,1.1h0c.7,0,.8.6.8,1.2h0ZM21,27c-.1-.2-.2-.5-.2-.7v-1c0-.3-.2-.5-.4-.5h-.2v2.2h-1.1v-4.8h1.1c1.1,0,1.7.1,1.7,1.1s-.3,1-.9,1.1h0c.5,0,.9.2.9.9v1c0,.2,0,.5.2.7h-1.1ZM24.4,27v-1.2h-.7l-.2,1.2h-.9l.8-4.8h1.5l.6,4.8h-1.1ZM29.2,27h-1.4l-.8-4h0v4h-1v-4.8h1.7l.7,3.5h0v-3.5h.9v4.8ZM30.9,27h-1.3v-4.8h1.3c1.3,0,1.7.2,1.7,1.6v1.7c0,.9-.3,1.5-1.7,1.5h0Z"/>
            <path class="cls-3" d="M45.9,19.4c-.6-.8-1.1-1.5-1.3-2.1-.2-.7-.2-1.6-.2-2.6,0-1.6,0-3.4-1-4.9-1.1-1.5-2.8-2-4.3-2.5-.9-.3-1.8-.5-2.4-1-.5-.4-1.1-1.1-1.6-1.9-.9-1.3-2-2.9-3.7-3.4-.4-.1-.9-.2-1.4-.2-1.2,0-2.3.4-3.4.8-.9.3-1.8.6-2.5.6s-1.6-.3-2.5-.6c-1.1-.4-2.3-.8-3.4-.8s-1,0-1.4.2c-1.7.6-2.8,2.1-3.7,3.4-.5.8-1.1,1.5-1.6,1.9-.6.4-1.4.7-2.4,1-1.5.5-3.3,1-4.3,2.5-1,1.5-1,3.3-1,4.9,0,1,0,1.9-.2,2.6-.2.6-.7,1.3-1.3,2.1C1.1,20.7,0,22.1,0,24s1.1,3.3,2.1,4.6c.6.8,1.1,1.5,1.3,2.1.2.7.2,1.6.2,2.6,0,1.6,0,3.4,1,4.9,1.1,1.5,2.8,2,4.3,2.5.9.3,1.8.5,2.4,1,.5.4,1.1,1.1,1.6,1.9.9,1.3,2,2.9,3.7,3.4.5.1.9.2,1.4.2,1.2,0,2.3-.4,3.4-.8.9-.3,1.8-.6,2.5-.6s1.6.3,2.5.6c1.1.4,2.3.8,3.5.8s1,0,1.4-.2c1.7-.6,2.8-2.1,3.7-3.4.5-.8,1.1-1.5,1.6-1.9.6-.4,1.4-.7,2.4-.9,1.5-.5,3.3-1,4.3-2.5,1-1.5,1-3.3,1-4.9,0-1,0-1.9.2-2.6.2-.6.7-1.3,1.3-2.1,1-1.3,2.1-2.8,2.1-4.7s-1.1-3.3-2.1-4.6ZM36.1,15.6l1.2-.5.3-1.3c0-.2.2-.2.3,0l.8,1h1.3c.2-.1.3,0,.2.2l-.7,1.1.5,1.2c0,.2,0,.3-.2.3l-1.3-.4-1,.8c-.2.1-.3,0-.3-.1v-1.3c0,0-1.2-.7-1.2-.7-.2-.1-.2-.3,0-.4h0ZM30.1,10.5l.8-1-.4-1.3c0-.2,0-.3.3-.2l1.2.5,1.1-.7c.2-.1.3,0,.3.2v1.3c0,0,1,.8,1,.8.2.1.1.3,0,.3l-1.3.3-.5,1.2c0,.2-.2.2-.4,0l-.7-1.1h-1.3c-.2,0-.3-.2-.1-.4h0ZM21.8,6.6l1.3-.2.6-1.2c0-.2.3-.2.4,0l.6,1.2,1.3.2c.2,0,.3.2.1.3l-1,.9.2,1.3c0,.2,0,.3-.3.2l-1.2-.6-1.2.6c-.2.1-.3,0-.3-.2l.2-1.3-1-.9c-.2-.2-.1-.3.1-.3h0ZM13.2,10l1-.8v-1.3c-.1-.2,0-.3.2-.2l1.1.7,1.2-.5c.2,0,.3,0,.3.2l-.4,1.3.8,1c.1.2,0,.3-.1.3h-1.3c0,0-.7,1.2-.7,1.2-.1.2-.3.2-.4,0l-.5-1.2-1.3-.3c-.2,0-.2-.2,0-.3h0ZM7.4,14.5h1.3c0,0,.8-1,.8-1,.1-.2.3-.1.3,0l.3,1.3,1.2.5c.2,0,.2.2,0,.4l-1.1.7v1.3c0,.2-.2.3-.4.1l-1-.8-1.3.4c-.2,0-.3,0-.2-.3l.5-1.2-.7-1.1c-.1-.2,0-.3.2-.3h0ZM6,26.2l-.2-1.3-1.2-.6c-.2,0-.2-.3,0-.4l1.2-.6.2-1.3c0-.2.2-.3.3-.1l.9,1,1.3-.2c.2,0,.3,0,.2.3l-.6,1.2.6,1.2c.1.2,0,.3-.2.3l-1.3-.2-.9.9c-.2.2-.3.1-.3-.1h0ZM11.3,33l-1.2.5-.3,1.3c0,.2-.2.2-.3,0l-.8-1h-1.3c-.2.1-.3,0-.2-.2l.7-1.1-.5-1.2c0-.2,0-.3.2-.3l1.3.4,1-.8c.2-.1.3,0,.3.1v1.3c0,0,1.2.7,1.2.7.2.1.2.3,0,.3h0ZM17.3,38l-.8,1,.4,1.3c0,.2,0,.3-.3.2l-1.2-.5-1.1.7c-.2.1-.3,0-.3-.2v-1.3c0,0-1-.8-1-.8-.2-.1-.1-.3,0-.3l1.3-.3.5-1.2c0-.2.2-.2.4,0l.7,1.1h1.3c.2,0,.3.2.1.4h0ZM25.6,42l-1.3.2-.6,1.2c0,.2-.3.2-.4,0l-.6-1.2-1.3-.2c-.2,0-.3-.2-.1-.3l.9-.9-.2-1.3c0-.2,0-.3.3-.2l1.2.6,1.2-.6c.2-.1.3,0,.3.2l-.2,1.3.9.9c.2.2.1.3-.1.3h0ZM34.2,38.6l-1,.8v1.3c.1.2,0,.3-.2.2l-1.1-.7-1.2.5c-.2,0-.3,0-.3-.2l.4-1.3-.8-1c-.1-.2,0-.3.1-.3h1.3c0,0,.7-1.2.7-1.2.1-.2.3-.2.4,0l.5,1.2,1.3.3c.2,0,.2.2,0,.3ZM24,36.9c-7.1,0-12.9-5.8-12.9-12.9s5.8-12.9,12.9-12.9,12.9,5.8,12.9,12.9-5.8,12.9-12.9,12.9ZM40,34.1h-1.3c0,0-.8,1-.8,1-.1.2-.3.1-.3,0l-.3-1.3-1.2-.5c-.2,0-.2-.2,0-.4l1.1-.7v-1.3c0-.2.2-.3.4-.1l1,.8,1.3-.4c.2,0,.3,0,.2.3l-.5,1.2.7,1.1c.1.2,0,.3-.2.3h0ZM42.7,24.6l-1.2.6-.2,1.3c0,.2-.2.3-.3.1l-.9-1-1.3.2c-.2,0-.3,0-.2-.3l.6-1.2-.6-1.2c-.1-.2,0-.3.2-.3l1.3.2.9-.9c.2-.2.3-.1.3.1l.2,1.3,1.2.6c.2,0,.2.3,0,.4h0Z"/>
          </g>
        </g>
        <g>
          <circle class="cls-1" cx="24" cy="24" r="11.7"/>
          <g id="Camada_2-2">
            <g>
              <path d="M15.8,28.6l1.6-2.8h2.7c1.8,0,3.3,1.3,3.5,3.1l.3,2.2h-3.5l-.5-1.2c-.3-.8-1.1-1.3-2-1.3h-2.1Z"/>
              <path d="M32.2,28.6l-1.6-2.8h-2.7c-1.8,0-3.3,1.3-3.5,3.1l-.3,2.2h3.5l.5-1.2c.3-.8,1.1-1.3,2-1.3h2.1Z"/>
              <path d="M17.5,25.8l5.1-8.9h1.4v3.4c-.3,2.9-2.6,5.3-5.5,5.4h-1c0,0,0,0,0,0Z"/>
              <path d="M30.5,25.8l-5.1-8.9h-1.4v3.4c.3,2.9,2.6,5.3,5.5,5.4h1c0,0,0,0,0,0Z"/>
            </g>
          </g>
        </g>
      </g>
    </g>
  </g>
</svg>