<?xml version="1.0" encoding="UTF-8"?>
<svg id="Camada_2" xmlns="http://www.w3.org/2000/svg" viewBox="0 0 277.63 40.79">
  <defs>
    <style>
      .cls-0 {
        fill: var(--brandcolor);
      }
      .cls-1 {
        fill: currentColor;
      }
    </style>
  </defs>
  <g id="Camada_2-2" data-name="Camada_2">
    <g>
      <g>
        <path class="cls-0" d="M0,33.72l4.61-8h7.64c5.01,0,9.25,3.71,9.91,8.68l.84,6.32h-10l-1.44-3.36c-.95-2.21-3.11-3.64-5.51-3.64H0Z"/>
        <path class="cls-0" d="M46,33.72l-4.61-8h-7.64c-5.01,0-9.25,3.71-9.91,8.68l-.84,6.32h10l1.44-3.36c.95-2.21,3.11-3.64,5.51-3.64h6.04Z"/>
        <path class="cls-0" d="M4.61,25.72L19,.72h4l-.4,9.52c-.34,8.22-6.86,14.84-15.07,15.31l-2.93.17Z"/>
        <path class="cls-0" d="M41.39,25.72L27,.72h-4l.4,9.52c.34,8.22,6.86,14.84,15.07,15.31l2.93.17Z"/>
      </g>
      <g>
        <path class="cls-1" d="M71.79,40.74c-3.44,0-6.64-.34-9.6-1.03-2.96-.68-5.53-1.83-7.71-3.44-2.18-1.61-3.87-3.78-5.05-6.52l9.93-2.94c.74,1.33,1.62,2.41,2.64,3.25,1.02.83,2.36,1.44,4.02,1.83,1.67.39,3.81.58,6.44.58,3.22,0,5.66-.35,7.33-1.05,1.67-.7,2.5-1.61,2.5-2.72,0-.85-.41-1.57-1.22-2.16-.81-.59-2.37-1.02-4.66-1.28l-10.71-1.33c-4.96-.63-8.66-1.85-11.1-3.66-2.44-1.81-3.66-4.33-3.66-7.55,0-2.85.85-5.21,2.55-7.08,1.7-1.87,4.12-3.27,7.24-4.22,3.13-.94,6.78-1.42,10.96-1.42,3.03,0,5.93.31,8.69.94,2.76.63,5.22,1.7,7.38,3.22,2.16,1.52,3.88,3.65,5.13,6.38l-9.49,2.94c-1.11-2.07-2.67-3.46-4.69-4.16-2.02-.7-4.65-1.05-7.91-1.05-2.74,0-4.93.29-6.58.86-1.65.57-2.47,1.4-2.47,2.47,0,.93.45,1.67,1.36,2.22.91.55,2.4.96,4.47,1.22l11.77,1.44c4.81.59,8.33,1.83,10.54,3.72,2.22,1.89,3.33,4.38,3.33,7.49,0,2.89-.89,5.3-2.66,7.24s-4.27,3.4-7.49,4.36c-3.22.96-6.98,1.44-11.27,1.44Z"/>
        <path class="cls-1" d="M121.01,40.79c-4.74,0-8.94-.84-12.63-2.53-3.68-1.68-6.57-4.05-8.66-7.1-2.09-3.05-3.14-6.65-3.14-10.79s1.04-7.73,3.14-10.77c2.09-3.03,4.98-5.38,8.66-7.05C112.07.89,116.28.06,121.01.06c4.14,0,7.79.59,10.93,1.78,3.14,1.18,5.73,2.8,7.77,4.86,2.03,2.05,3.4,4.36,4.11,6.91l-9.93,2.39c-.78-1.92-1.81-3.43-3.11-4.52-1.3-1.09-2.77-1.86-4.41-2.3-1.65-.44-3.38-.67-5.19-.67-2.44,0-4.68.42-6.72,1.25-2.04.83-3.65,2.08-4.86,3.75-1.2,1.66-1.8,3.77-1.8,6.33v1.11c0,2.52.6,4.62,1.8,6.3,1.2,1.68,2.82,2.94,4.86,3.77,2.03.83,4.27,1.25,6.72,1.25,1.81,0,3.54-.22,5.19-.67,1.65-.44,3.12-1.21,4.41-2.3,1.29-1.09,2.33-2.6,3.11-4.52l9.93,2.39c-.7,2.55-2.07,4.86-4.11,6.91-2.04,2.05-4.63,3.69-7.77,4.91-3.15,1.22-6.79,1.83-10.93,1.83Z"/>
        <path class="cls-1" d="M148.15,40.07V.67h36.63v8.21h-25.53v7.33h23.03v7.88h-23.03v7.77h25.92v8.21h-37.02Z"/>
        <path class="cls-1" d="M190.5,40.07V.67h11.38l18.87,22.09h.06V.67h10.32v39.4h-8.49l-21.76-25.42h-.06v25.42h-10.32Z"/>
        <path class="cls-1" d="M250.88,40.07V8.88h-15.65V.67h42.4v8.21h-15.65v31.19h-11.1Z"/>
      </g>
    </g>
  </g>
</svg>